<svg width="10720" height="16772" viewBox="0 0 10720 16772" fill="none" xmlns="http://www.w3.org/2000/svg">
<path fill-rule="evenodd" clip-rule="evenodd" d="M6569.16 12090.9H6737.3V2424.4H6569.16V12090.9Z" fill="#D7EBFF"/>
<path fill-rule="evenodd" clip-rule="evenodd" d="M4841.49 2670.39L3510.83 2100.42C3455.24 2076.62 3424.83 1998.36 3443.26 1926.54L3509.64 1667.8C3528.07 1595.98 3588.63 1556.7 3644.21 1580.5L4974.87 2150.47C5030.45 2174.28 5060.87 2252.53 5042.44 2324.35L4976.06 2583.09C4957.64 2654.91 4897.07 2694.19 4841.49 2670.39Z" fill="#ECF6FF"/>
<path fill-rule="evenodd" clip-rule="evenodd" d="M6330.96 15674.7H6975.48V12471H6330.96V15674.7Z" fill="#CCE3FF"/>
<path fill-rule="evenodd" clip-rule="evenodd" d="M6467.58 13068.5H6838.88V11972.3H6467.58V13068.5Z" fill="#CCE3FF"/>
<path fill-rule="evenodd" clip-rule="evenodd" d="M6498.74 2655.43H6807.75V2190.65H6498.74V2655.43Z" fill="#CCE3FF"/>
<path d="M4390.37 1904.75C4390.37 1904.75 6653.22 2551.23 6653.22 4122.57" stroke="#DCEEFF" stroke-width="15.1805" stroke-linejoin="bevel"/>
<path fill-rule="evenodd" clip-rule="evenodd" d="M4990.08 2495.6L3531.32 1870.75C3400.78 1814.85 3329.38 1631.07 3372.65 1462.39L3385.75 1411.3C3429.03 1242.63 3571.25 1150.36 3701.8 1206.27L5160.56 1831.1C5291.11 1887.02 5362.5 2070.79 5319.23 2239.48L5306.12 2290.57C5262.85 2459.24 5120.63 2551.51 4990.08 2495.6Z" fill="#CCE3FF"/>
<path fill-rule="evenodd" clip-rule="evenodd" d="M7537.9 12091.1H7371.17V2424.5H7537.9V12091.1Z" fill="#D7EBFF"/>
<path fill-rule="evenodd" clip-rule="evenodd" d="M9251 2670.48L10570.4 2100.5C10625.6 2076.7 10655.7 1998.44 10637.4 1926.62L10571.6 1667.88C10553.3 1596.06 10493.3 1556.77 10438.2 1580.58L9118.74 2150.55C9063.63 2174.36 9033.47 2252.62 9051.75 2324.44L9117.57 2583.18C9135.83 2655 9195.89 2694.28 9251 2670.48Z" fill="#ECF6FF"/>
<path fill-rule="evenodd" clip-rule="evenodd" d="M7774.09 15675H7135V12471.3H7774.09V15675Z" fill="#CCE3FF"/>
<path fill-rule="evenodd" clip-rule="evenodd" d="M7638.62 13068.8H7270.45V11972.6H7638.62V13068.8Z" fill="#CCE3FF"/>
<path fill-rule="evenodd" clip-rule="evenodd" d="M7607.73 2655.53H7301.32V2190.74H7607.73V2655.53Z" fill="#CCE3FF"/>
<path d="M9698.32 1904.83C9698.32 1904.83 7454.55 2551.33 7454.55 4122.68" stroke="#DCEEFF" stroke-width="15" stroke-linejoin="bevel"/>
<path fill-rule="evenodd" clip-rule="evenodd" d="M9103.66 2495.69L10550.1 1870.83C10679.6 1814.93 10750.4 1631.15 10707.5 1462.46L10694.5 1411.38C10651.6 1242.7 10510.5 1150.42 10381.1 1206.34L8934.62 1831.18C8805.18 1887.1 8734.38 2070.87 8777.29 2239.57L8790.29 2290.65C8833.2 2459.33 8974.22 2551.61 9103.66 2495.69Z" fill="#CCE3FF"/>
</svg>
